
<svg width="388" height="79" xmlns="http://www.w3.org/2000/svg">
  <g id="logo-icon">
        <rect fill="#2CA8A4" height="23" rx="3" ry="3" width="23" x="0" y="0" />
        <rect fill="#2CA8A4" height="23" rx="3" ry="3" width="23" x="28" y="0" />
        <rect fill="#2CA8A4" height="23" rx="3" ry="3" width="23" x="0" y="28" />
        <rect fill="#2CA8A4" height="23" rx="3" ry="3" width="23" x="28" y="28" />
        <rect fill="#2CA8A4" height="23" rx="3" ry="3" width="23" x="0" y="56" />
        <rect fill="#2CA8A4" height="23" rx="3" ry="3" width="23" x="28" y="56" />
        <polygon points="70,43 70,32 57,22 57,3 76,3 96,18 96,41 57,76 57,56"
            style="fill:#2CA8A4;stroke:#2CA8A4;stroke-width:4;stroke-linejoin:round" />
  </g>
    <g id="logo-title" font-family="Arial" font-weight="bold" font-size="48" fill="#666">
    <text x="102" y="45">ServiceDeck</text>
  </g>
  <g id="logo-tagline" font-family="Arial" font-size="22.5" fill="#888">
    <text x="102" y="75">One interface. Every service.</text>
  </g>
</svg>
